# xmcd
#
# Track frame offsets: 
#        300
#        15043
#        27202
#        43735
#        57947
#        70881
#        84012
#        100538
#
# Disc length: 1548 seconds
#
# Revision: 0
# Processed by: cddbd v1.5.2PL0 Copyright (c) Steve Scherf et al.
# Submitted via: ExactAudioCopy v0.99pb3
#
DISCID=4f060808
DTITLE=Just Left - Better Late Than Never
DYEAR=2008
DGENRE=Pop-Punk
TTITLE0=Finding You In Yourself
TTITLE1=I Call It Like I See It
TTITLE2=These Are The Days
TTITLE3=Tell Me What You're Thinkin'
TTITLE4=Time
TTITLE5=Not To Be Rude
TTITLE6=Don't Hold Your Breath
TTITLE7=Memmi
EXTD=
EXTT0=
EXTT1=
EXTT2=
EXTT3=
EXTT4=
EXTT5=
EXTT6=
EXTT7=
PLAYORDER=
